# xmcd
#
# Track frame offsets:
#	150
#	31175
#	47309
#	64967
#	94868
#	118835
#	143439
#	166537
#	186842
#	204305
#	234233
#	252748
#	272923
#	300387
#	315686
#	337787
#
# Disc length: 4776 seconds
#
# Revision: 1
# Processed by: cddbd v1.4PL0 Copyright (c) Steve Scherf et al.
# Submitted via: EasyCDDAExtractor 5.0.6
#
DISCID=d012a610
DTITLE=Чиж and Co - Золотые Баллады
DYEAR=2002
DGENRE=Blues
TTITLE0=Перекрёсток
TTITLE1=18 берёз
TTITLE2=Еду, еду
TTITLE3=Снова поезд
TTITLE4=Дорогуша
TTITLE5=Танец дамской разведки
TTITLE6=Ты был в этом городе первым
TTITLE7=Есть!
TTITLE8=Still Life
TTITLE9=Она не вышла замуж...
TTITLE10=Still Got the Blues
TTITLE11=Лирическая
TTITLE12=Полонез
TTITLE13=Поход
TTITLE14=Папиросы
TTITLE15=О любви
EXTD=
EXTT0=
EXTT1=
EXTT2=
EXTT3=
EXTT4=
EXTT5=
EXTT6=
EXTT7=
EXTT8=
EXTT9=
EXTT10=
EXTT11=
EXTT12=
EXTT13=
EXTT14=
EXTT15=
PLAYORDER=
